<?xml version="1.0" standalone="no"?><!DOCTYPE svg PUBLIC "-//W3C//DTD SVG 1.1//EN" "http://www.w3.org/Graphics/SVG/1.1/DTD/svg11.dtd"><svg class="icon" width="200px" height="200.00px" viewBox="0 0 1024 1024" version="1.1" xmlns="http://www.w3.org/2000/svg"><path d="M161.376 667.828l38.96 77.916h339.292c83.6 0 165.328-24.744 234.884-71.116l127.076-84.716-740.212 77.916z" fill="#8D386D" /><path d="M239.28 745.756h-38.96l-38.96-77.92 37.024-4z" fill="#E8E6F4" /><path d="M654.64 313.904L512 395.12v155.832l-389.584 38.96 38.96 77.916 740.208-77.916v-77.916a378.8 378.8 0 0 0-246.944-198.092z" fill="#8479B9" /><path d="M159.692 586.112l-37.276 3.8 38.96 77.916 37.008-3.896zM550.96 372.956v185.72l-38.96 3.88v-167.44z" fill="#E8E6F4" /><path d="M201.528 582l18.284-121.256 136.356 51.248 155.832-3.248v42.208z" fill="#FCC800" /><path d="M256.68 474.6l-36.868-13.856-18.284 121.256 39.552-3.956z" fill="#E8E6F4" /><path d="M434.084 278.244h68.324c6.372 0 12.716 0.78 18.896 2.328l133.336 33.336L512 395.12c0-43.032-34.884-77.916-77.916-77.916v-38.96z" fill="#FCC800" /><path d="M473.044 298.156v-19.912h-38.96v38.96C477.116 317.2 512 352.088 512 395.12l36.124-20.568c-9.032-33.036-39.18-76.396-75.08-76.396z" fill="#E8E6F4" /><path d="M356.764 278.244h77.32v39.828h-77.32z" fill="#8D386D" /><path d="M539.624 757.744H200.332a12.008 12.008 0 0 1-10.736-6.632l-38.956-77.916a12.008 12.008 0 0 1 9.476-17.3l740.208-77.916a11.956 11.956 0 0 1 12.544 7.86 12 12 0 0 1-4.628 14.06l-127.076 84.716c-71.764 47.84-155.288 73.128-241.54 73.128z m-331.876-24h331.876c81.496 0 160.416-23.896 228.228-69.1l86.548-57.7-674.548 71.004 27.896 55.796z" fill="#44294F" /><path d="M335.696 685.744H380v24H335.696zM539.624 709.744h-121.292v-24h121.292c56.608 0 110.904-12.704 161.372-37.76l10.672 21.496c-53.816 26.716-111.7 40.264-172.044 40.264zM161.372 679.828a12.008 12.008 0 0 1-10.732-6.632l-38.956-77.916a12 12 0 0 1 9.54-17.308l378.776-37.88V395.12a12 12 0 0 1 6.064-10.428l142.64-81.216a12.036 12.036 0 0 1 8.848-1.216 390.36 390.36 0 0 1 254.764 204.364c0.832 1.668 1.264 3.504 1.264 5.368v77.916a12 12 0 0 1-10.744 11.932L162.632 679.76a12.148 12.148 0 0 1-1.26 0.068z m-20.436-79.712l27.452 54.904 721.192-75.916v-64.256a366.376 366.376 0 0 0-233.224-188.116L524 402.096v148.856a12 12 0 0 1-10.804 11.94l-372.26 37.224z" fill="#44294F" /><path d="M201.528 594a12.008 12.008 0 0 1-11.868-13.788l18.284-121.256a12 12 0 0 1 16.088-9.444l134.192 50.436 153.524-3.204a12.148 12.148 0 0 1 8.644 3.424c2.304 2.256 3.604 5.348 3.604 8.576v42.208a12 12 0 0 1-10.804 11.94l-310.472 31.048c-0.396 0.04-0.8 0.06-1.192 0.06z m27.94-116.808l-13.772 91.332L500 540.092v-19.096l-143.584 2.996a11.54 11.54 0 0 1-4.472-0.764l-122.476-46.036zM512 407.12a12 12 0 0 1-12-12c0-36.348-29.572-65.916-65.916-65.916a12 12 0 0 1-12-12v-38.956a12 12 0 0 1 12-12h68.324c7.348 0 14.684 0.904 21.808 2.684l133.336 33.332a12.008 12.008 0 0 1 3.028 22.072l-142.64 81.216a12.052 12.052 0 0 1-5.94 1.568zM446.084 306c37.488 5.02 67.74 33.236 75.8 69.684l100.808-57.396-104.296-26.076a65.864 65.864 0 0 0-15.988-1.968h-56.324V306z" fill="#44294F" /><path d="M434.084 330.072H356.76a12 12 0 0 1-12-12v-39.828a12 12 0 0 1 12-12h77.32a12 12 0 0 1 12 12v39.828a11.996 11.996 0 0 1-11.996 12z m-65.324-24h53.32v-15.828H368.76v15.828z" fill="#44294F" /><path d="M756.936 356.16h-11.184c-43.032 0-77.916 34.884-77.916 77.916s34.884 77.916 77.916 77.916h155.832a378.768 378.768 0 0 0-144.648-155.832z" fill="#94D3CC" /><path d="M706.792 434.076c0-35.228 23.392-64.964 55.48-74.604-1.78-1.104-3.536-2.24-5.336-3.316h-11.184c-43.032 0-77.916 34.884-77.916 77.916s34.884 77.916 77.916 77.916h38.96c-43.036 0.004-77.92-34.88-77.92-77.912z" fill="#E8E6F4" /><path d="M901.584 523.996h-155.832c-49.584 0-89.916-40.336-89.916-89.916s40.336-89.916 89.916-89.916h11.184c2.168 0 4.292 0.584 6.152 1.696a390.14 390.14 0 0 1 149.232 160.768 12 12 0 0 1-10.736 17.368zM745.752 368.16c-36.348 0-65.916 29.572-65.916 65.916 0 36.348 29.572 65.916 65.916 65.916h135.828a366.088 366.088 0 0 0-127.984-131.832h-7.844zM818.8 548.072l42.56-4.488 2.516 23.868-42.564 4.488z" fill="#44294F" /><path d="M200.264 613.204l583.172-61.452 2.52 23.868-583.176 61.452z" fill="#44294F" /></svg>